<svg width="447" height="408" viewBox="0 0 447 408" fill="none" xmlns="http://www.w3.org/2000/svg">
<path fill-rule="evenodd" clip-rule="evenodd" d="M108.802 83.1862C99.6691 78.3238 95.1025 75.8926 91.7391 77.9278C88.3757 79.9631 88.3791 85.1555 88.3859 95.5404L88.5124 289.589C88.5151 293.728 88.5165 295.797 89.5242 297.479C90.5319 299.16 92.3521 300.129 95.9924 302.067L137.232 324.022C146.365 328.885 150.932 331.316 154.295 329.281C157.659 327.246 157.655 322.053 157.649 311.668L157.634 288.662C157.627 278.277 157.623 273.084 160.987 271.049C164.35 269.014 168.917 271.445 178.05 276.307L248.124 313.614C257.265 318.481 261.836 320.914 265.2 318.876C268.564 316.839 268.556 311.642 268.541 301.248L268.458 246.116C268.452 241.981 268.449 239.913 267.441 238.234C266.433 236.555 264.615 235.586 260.978 233.65L165.036 182.571C161.396 180.633 159.576 179.664 158.568 177.983C157.56 176.302 157.559 174.233 157.556 170.093L157.522 117.62C157.519 113.481 157.518 111.411 156.51 109.73C155.502 108.049 153.682 107.08 150.042 105.142L108.802 83.1862Z" fill="#2453FB"/>
<path fill-rule="evenodd" clip-rule="evenodd" d="M337.811 325.1C346.945 329.962 351.511 332.394 354.875 330.358C358.238 328.323 358.235 323.131 358.228 312.746L358.101 118.698C358.099 114.558 358.097 112.489 357.089 110.808C356.082 109.127 354.262 108.158 350.621 106.219L309.381 84.2638C300.248 79.4014 295.682 76.9702 292.318 79.0054C288.955 81.0407 288.958 86.2331 288.965 96.618L288.98 119.625C288.987 130.01 288.99 135.202 285.627 137.237C282.263 139.272 277.697 136.841 268.564 131.979L198.489 94.6718C189.348 89.8053 184.778 87.372 181.414 89.4097C178.049 91.4474 178.057 96.6443 178.073 107.038L178.156 162.17C178.162 166.305 178.165 168.373 179.173 170.052C180.18 171.732 181.999 172.7 185.636 174.636L281.577 225.715C285.218 227.653 287.038 228.622 288.046 230.303C289.053 231.984 289.055 234.054 289.057 238.193L289.092 290.666C289.094 294.805 289.096 296.875 290.103 298.556C291.111 300.237 292.931 301.206 296.572 303.144L337.811 325.1Z" fill="#00D6BA"/>
</svg>
